# xmcd
#
# Track frame offsets: 
#        150
#        17442
#        33128
#        54901
#        72211
#        91892
#        108790
#        126487
#        140918
#        161364
#
# Disc length: 2445 seconds
#
# Revision: 2
# Processed by: cddbd v1.5.2PL0 Copyright (c) Steve Scherf et al.
# Submitted via: ExactAudioCopyFreeDBPlugin 1.0
#
DISCID=79098b0a
DTITLE=Natalie Grant, 1971- - Hurricane
DYEAR=2013
DGENRE=CCM 2011-2020
TTITLE0=Natalie Grant - Closer to Your Heart
TTITLE1=Natalie Grant - Hurricane
TTITLE2=Natalie Grant - For All of Us
TTITLE3=Natalie Grant - Whisper
TTITLE4=Natalie Grant - Burn Bright
TTITLE5=Natalie Grant - This is Love
TTITLE6=Natalie Grant and Gary Levox - Born to Be
TTITLE7=Natalie Grant - Dead Alive
TTITLE8=Natalie Grant - When I Leave the Room
TTITLE9=Natalie Grant - In the End
EXTD=YEAR: 2013
EXTT0=
EXTT1=
EXTT2=
EXTT3=
EXTT4=
EXTT5=
EXTT6=
EXTT7=
EXTT8=
EXTT9=
PLAYORDER=
